<?xml version="1.0" standalone="no"?>
<!DOCTYPE svg PUBLIC "-//W3C//DTD SVG 20010904//EN"
 "http://www.w3.org/TR/2001/REC-SVG-20010904/DTD/svg10.dtd">
<svg version="1.0" xmlns="http://www.w3.org/2000/svg"
 width="1540.000000pt" height="468.000000pt" viewBox="0 0 1540.000000 468.000000"
 preserveAspectRatio="xMidYMid meet">

<g transform="translate(0.000000,468.000000) scale(0.100000,-0.100000)"
fill="#000000" stroke="none">
<path d="M42 4088 c-17 -17 -17 -459 0 -476 17 -17 1739 -17 1756 0 17 17 17
459 0 476 -17 17 -1739 17 -1756 0z"/>
<path d="M1912 4088 c-17 -17 -17 -2889 0 -2906 9 -9 178 -12 700 -12 l688 0
0 270 0 270 -417 2 -418 3 0 330 0 330 595 5 595 5 0 255 0 255 -595 5 -595 5
-3 333 -2 332 420 0 420 0 0 265 0 265 -688 0 c-522 0 -691 -3 -700 -12z"/>
<path d="M3772 4092 c-10 -7 -12 -287 -10 -1369 l3 -1360 388 434 c214 239
393 433 398 431 4 -2 196 -232 424 -513 229 -280 425 -518 437 -527 18 -16 50
-18 348 -18 181 0 335 3 344 6 9 3 16 14 16 23 0 10 -268 329 -595 711 -327
381 -595 696 -595 699 0 3 266 330 590 726 324 396 590 727 590 736 0 9 -7 20
-16 23 -9 3 -157 6 -330 6 -314 0 -315 0 -337 -23 -12 -12 -265 -319 -562
-681 l-540 -658 -3 668 c-1 472 -5 671 -13 681 -9 10 -65 13 -268 13 -141 0
-262 -4 -269 -8z"/>
<path d="M7480 4089 c-618 -69 -1071 -491 -1201 -1116 -41 -199 -41 -470 0
-669 30 -148 64 -244 136 -389 139 -280 335 -475 609 -606 412 -196 974 -181
1362 36 213 119 421 339 533 562 224 449 226 1004 5 1444 -199 398 -532 645
-976 725 -105 18 -356 26 -468 13z m425 -533 c235 -65 421 -227 530 -459 230
-487 55 -1114 -368 -1322 -137 -67 -225 -88 -387 -89 -164 -1 -256 17 -385 78
-163 77 -286 197 -374 366 -58 113 -87 201 -106 330 -41 267 14 542 149 749
122 188 292 305 516 357 78 18 346 12 425 -10z"/>
<path d="M10903 4088 c-4 -7 -10 -472 -13 -1033 l-5 -1020 -27 -58 c-78 -165
-274 -266 -518 -267 -259 0 -464 134 -530 347 -19 63 -20 92 -20 789 l0 724
-281 0 -280 0 4 -782 c4 -860 2 -828 67 -997 107 -276 368 -493 692 -575 235
-60 470 -60 704 -1 195 49 341 126 470 248 130 123 203 245 252 425 l27 97 3
1044 c2 779 0 1047 -9 1057 -16 19 -523 21 -536 2z"/>
<path d="M11910 2885 l0 -1215 280 0 280 0 0 1215 0 1215 -280 0 -280 0 0
-1215z"/>
<path d="M12882 4088 c-9 -9 -12 -270 -12 -1115 l0 -1103 283 2 282 3 5 613 5
613 672 -953 c369 -524 677 -959 684 -965 18 -18 529 -19 547 -1 17 17 17
2889 0 2906 -18 18 -521 17 -537 -1 -8 -10 -12 -284 -13 -970 l-3 -956 -665
941 c-366 518 -676 954 -688 970 l-24 28 -262 0 c-190 0 -265 -3 -274 -12z"/>
<path d="M640 2117 c0 -705 3 -926 12 -935 17 -17 519 -17 536 0 9 9 12 230
12 935 l0 923 -280 0 -280 0 0 -923z"/>
<path d="M12073 1569 c-64 -25 -131 -88 -163 -154 -51 -106 -24 -248 63 -333
63 -62 126 -87 217 -86 122 1 217 61 270 170 36 74 35 179 -3 256 -68 139
-237 204 -384 147z"/>
</g>
</svg>
